<?xml version="1.0" encoding="utf-8"?>
<!-- Generator: Adobe Illustrator 28.3.0, SVG Export Plug-In . SVG Version: 6.00 Build 0)  -->
<svg version="1.1" id="Layer_1" xmlns="http://www.w3.org/2000/svg" xmlns:xlink="http://www.w3.org/1999/xlink" x="0px" y="0px"
	 viewBox="0 0 4000 4000" style="enable-background:new 0 0 4000 4000;" xml:space="preserve">
<style type="text/css">
	.st0{fill:url(#SVGID_1_);}
	.st1{fill:url(#SVGID_00000180350116202532645010000004824911644657436087_);}
</style>
<g>
	<g>
		<linearGradient id="SVGID_1_" gradientUnits="userSpaceOnUse" x1="953.6277" y1="307.9973" x2="3525.593" y2="4466.9233">
			<stop  offset="1.914000e-03" style="stop-color:#13FFFF"/>
			<stop  offset="0.484" style="stop-color:#3BA3FF"/>
			<stop  offset="1" style="stop-color:#9C00FF"/>
		</linearGradient>
		<path class="st0" d="M3142.14,717.41l-58.64-32.42l-486.19-280.9l-57.11-33.96L2000,58.36l-540.2,311.78l-57.11,33.96
			l-486.19,280.9l-58.65,32.42L319.2,1029.18v622v696.09v623.55l538.66,310.22l58.65,33.96l486.19,280.91l57.11,33.95l540.2,311.78
			l540.2-311.78l57.11-33.95l486.19-280.91l58.64-33.96l538.67-310.22v-623.55v-696.09v-622L3142.14,717.41z"/>
	</g>
	
		<radialGradient id="SVGID_00000001648156922155304210000008936771626171596958_" cx="1925.85" cy="1348.1908" r="2161.2043" gradientUnits="userSpaceOnUse">
		<stop  offset="0.4253" style="stop-color:#FFFFFF"/>
		<stop  offset="0.7828" style="stop-color:#E1FBFF"/>
		<stop  offset="1" style="stop-color:#B8EAF9"/>
	</radialGradient>
	<polygon style="fill:url(#SVGID_00000001648156922155304210000008936771626171596958_);" points="1997.98,271.61 2328.07,1428.26 
		3494.81,1135.81 2658.17,2000 3494.81,2864.19 2328.07,2571.74 1997.98,3728.39 1667.89,2571.74 501.15,2864.19 1337.79,2000 
		501.15,1135.81 1667.89,1428.26 	"/>
</g>
</svg>
